<svg width="100%" height="100%" viewBox="0 0 24 24" version="1.1" xmlns="http://www.w3.org/2000/svg" xmlns:xlink="http://www.w3.org/1999/xlink" xml:space="preserve" xmlns:serif="http://www.serif.com/" style="fill-rule:evenodd;clip-rule:evenodd;stroke-linejoin:round;stroke-miterlimit:2;">
    <g transform="matrix(1,0,0,1,0,-64)">
        <g id="File-Sync" serif:id="File Sync" transform="matrix(0.24,0,0,0.24,-0.48,64.24)">
            <rect x="2" y="-1" width="100" height="100" style="fill:none;"/>
            <clipPath id="_clip1">
                <rect x="2" y="-1" width="100" height="100"/>
            </clipPath>
            <g clip-path="url(#_clip1)">
                <g transform="matrix(50,0,0,50,2,-1)">
                    <rect x="0" y="0" width="2" height="2" style="fill:rgb(39,125,161);"/>
                </g>
                <g transform="matrix(0.575279,0,0,0.575279,3.388889,0.388601)">
                    <g>
                        <path d="M135.2,85.374L135.2,43.416C135.2,38.171 130.83,33.8 125.584,33.8L83.626,33.8C78.382,33.8 74.01,38.17 74.01,43.416L74.01,74.011L43.415,74.011C38.171,74.011 33.8,78.381 33.8,83.627L33.8,125.411C33.8,130.831 38.17,135.201 43.415,135.201L85.199,135.201C90.619,135.201 94.815,130.831 94.815,125.585L94.815,94.99L125.41,94.99C130.83,94.99 135.2,90.62 135.2,85.374ZM87.996,125.585C87.996,127.158 86.772,128.208 85.373,128.208L43.415,128.208C42.016,128.208 40.792,126.984 40.792,125.585L40.792,83.627C40.792,82.228 42.016,81.004 43.415,81.004L74.01,81.004L74.01,85.374C74.01,90.794 78.38,94.99 83.626,94.99L87.996,94.99L87.996,125.585ZM128.207,85.374C128.207,86.947 126.983,87.997 125.584,87.997L83.626,87.997C82.053,87.997 81.003,86.773 81.003,85.374L81.003,43.416C81.003,42.017 82.227,40.793 83.626,40.793L125.41,40.793C126.983,40.793 128.207,42.017 128.207,43.416L128.207,85.374Z" style="fill-rule:nonzero;"/>
                    </g>
                    <g>
                        <path d="M131.704,105.479C131.704,103.556 130.131,101.982 128.207,101.982C126.284,101.982 124.71,103.555 124.71,105.479C124.71,112.298 119.116,118.241 112.122,118.591C113.521,117.192 113.521,115.094 112.122,113.696C110.723,112.297 108.625,112.297 107.227,113.696L101.283,119.465C100.584,120.164 100.233,121.038 100.233,121.913L100.233,122.262C100.233,123.486 100.932,124.71 101.982,125.234L107.401,130.654C108.1,131.353 108.975,131.704 109.849,131.704C110.723,131.704 111.597,131.354 112.296,130.654C113.695,129.255 113.695,127.157 112.296,125.759C123.136,125.234 131.702,116.319 131.702,105.479L131.704,105.479Z" style="fill-opacity:0.4;fill-rule:nonzero;"/>
                    </g>
                    <g>
                        <path d="M37.297,63.346C37.297,65.269 38.871,66.843 40.795,66.843C42.717,66.843 44.29,65.27 44.29,63.346C44.29,56.527 49.884,50.584 56.878,50.234C55.479,51.633 55.479,53.731 56.878,55.129C57.578,55.828 58.452,56.179 59.326,56.179C60.2,56.179 61.074,55.829 61.774,55.129L67.892,49.185C68.591,48.485 68.942,47.611 68.942,46.737L68.942,46.388C68.942,45.164 68.243,43.94 67.193,43.415L61.774,37.996C60.375,36.597 58.276,36.597 56.878,37.996C55.479,39.395 55.479,41.491 56.878,42.89C45.865,43.59 37.297,52.506 37.297,63.344L37.297,63.346Z" style="fill-opacity:0.4;fill-rule:nonzero;"/>
                    </g>
                    <g>
                        <path d="M64.395,89.745C56.178,89.745 49.535,96.389 49.535,104.605C49.535,112.822 56.179,119.465 64.395,119.465C72.611,119.465 79.255,112.822 79.255,104.605C79.255,96.389 72.611,89.745 64.395,89.745ZM64.395,112.472C60.025,112.472 56.528,108.975 56.528,104.605C56.528,100.235 60.025,96.738 64.395,96.738C68.765,96.738 72.262,100.235 72.262,104.605C72.262,108.975 68.765,112.472 64.395,112.472Z" style="fill-opacity:0.4;fill-rule:nonzero;"/>
                    </g>
                    <g>
                        <path d="M108.452,51.108C107.753,50.058 106.704,49.535 105.48,49.535C104.256,49.535 103.208,50.06 102.508,51.108L90.27,70.339C89.571,71.387 89.571,72.786 90.094,73.836C90.793,74.884 91.843,75.584 93.241,75.584L117.717,75.584C118.941,75.584 120.164,74.885 120.863,73.836C121.562,72.786 121.388,71.388 120.688,70.339L108.451,51.108L108.452,51.108ZM99.536,68.765L105.481,59.499L111.425,68.765L99.536,68.765Z" style="fill-opacity:0.4;fill-rule:nonzero;"/>
                    </g>
                </g>
            </g>
        </g>
        <g id="Colors">
        </g>
    </g>
</svg>
