<svg width="169px" height="169px" viewBox="0 0 1000 1000" version="1.1" xmlns="http://www.w3.org/2000/svg" xmlns:xlink="http://www.w3.org/1999/xlink" xml:space="preserve" xmlns:serif="http://www.serif.com/" style="fill-rule:evenodd;clip-rule:evenodd;stroke-linejoin:round;stroke-miterlimit:2;">
    <g transform="matrix(0.998004,0,0,1,0.998004,1)">
        <rect x="-1" y="-1" width="1002" height="1000" style="fill:rgb(59,66,82);"/>
    </g>
    <g transform="matrix(6.620646,0,0,6.620646,135.868452,102.761251)">
        <g transform="matrix(1,0,0,1,5,10)">
            <path d="M95.312,50.781L95.312,13.281C95.312,8.593 91.406,4.687 86.718,4.687L49.218,4.687C44.531,4.687 40.624,8.593 40.624,13.281L40.624,40.625L13.28,40.625C8.593,40.625 4.687,44.531 4.687,49.219L4.687,86.563C4.687,91.407 8.593,95.313 13.28,95.313L50.624,95.313C55.468,95.313 59.218,91.407 59.218,86.719L59.218,59.375L86.562,59.375C91.406,59.375 95.312,55.469 95.312,50.781L95.312,50.781ZM53.124,86.719C53.124,88.125 52.03,89.063 50.78,89.063L13.28,89.063C12.03,89.063 10.936,87.969 10.936,86.719L10.936,49.219C10.936,47.969 12.03,46.875 13.28,46.875L40.624,46.875L40.624,50.781C40.624,55.625 44.53,59.375 49.218,59.375L53.124,59.375L53.124,86.719ZM89.062,50.781C89.062,52.187 87.968,53.125 86.718,53.125L49.218,53.125C47.812,53.125 46.874,52.031 46.874,50.781L46.874,13.281C46.874,12.031 47.968,10.937 49.218,10.937L86.562,10.937C87.968,10.937 89.062,12.031 89.062,13.281L89.062,50.781Z" style="fill:rgb(216,222,233);fill-rule:nonzero;"/>
        </g>
        <g transform="matrix(1,0,0,1,5,10)">
            <path d="M92.188,68.75C92.188,67.031 90.782,65.625 89.063,65.625C87.344,65.625 85.938,67.031 85.938,68.75C85.938,74.844 80.938,80.156 74.688,80.469C75.938,79.219 75.938,77.344 74.688,76.094C73.438,74.844 71.563,74.844 70.313,76.094L65.001,81.25C64.376,81.875 64.063,82.656 64.063,83.438L64.063,83.75C64.063,84.844 64.688,85.938 65.626,86.406L70.469,91.25C71.094,91.875 71.876,92.188 72.657,92.188C73.438,92.188 74.219,91.875 74.844,91.25C76.094,90 76.094,88.125 74.844,86.875C84.532,86.406 92.188,78.438 92.188,68.75L92.188,68.75Z" style="fill:rgb(216,222,233);fill-rule:nonzero;"/>
        </g>
        <g transform="matrix(1,0,0,1,5,10)">
            <path d="M7.812,31.094C7.812,32.813 9.219,34.219 10.938,34.219C12.656,34.219 14.062,32.813 14.062,31.094C14.062,25 19.062,19.688 25.312,19.375C24.062,20.625 24.062,22.5 25.312,23.75C25.938,24.375 26.719,24.688 27.5,24.688C28.281,24.688 29.062,24.375 29.688,23.75L35.156,18.438C35.781,17.812 36.094,17.031 36.094,16.25L36.094,15.938C36.094,14.844 35.469,13.75 34.531,13.281L29.688,8.438C28.438,7.188 26.562,7.188 25.312,8.438C24.062,9.688 24.062,11.562 25.312,12.812C15.469,13.438 7.812,21.406 7.812,31.093L7.812,31.094Z" style="fill:rgb(216,222,233);fill-rule:nonzero;"/>
        </g>
        <g transform="matrix(1,0,0,1,5,10)">
            <path d="M32.031,54.688C24.687,54.688 18.75,60.626 18.75,67.969C18.75,75.313 24.688,81.25 32.031,81.25C39.374,81.25 45.312,75.313 45.312,67.969C45.312,60.626 39.374,54.688 32.031,54.688ZM32.031,75C28.125,75 25,71.875 25,67.969C25,64.063 28.125,60.938 32.031,60.938C35.937,60.938 39.062,64.063 39.062,67.969C39.062,71.875 35.937,75 32.031,75Z" style="fill:rgb(216,222,233);fill-rule:nonzero;"/>
        </g>
        <g transform="matrix(1,0,0,1,5,10)">
            <path d="M71.406,20.156C70.781,19.218 69.844,18.75 68.75,18.75C67.656,18.75 66.719,19.219 66.094,20.156L55.156,37.344C54.531,38.281 54.531,39.531 54.999,40.469C55.624,41.406 56.562,42.031 57.812,42.031L79.687,42.031C80.781,42.031 81.874,41.406 82.499,40.469C83.124,39.531 82.968,38.281 82.343,37.344L71.406,20.156ZM63.437,35.937L68.75,27.656L74.062,35.937L63.437,35.937Z" style="fill:rgb(216,222,233);fill-rule:nonzero;"/>
        </g>
    </g>
</svg>
