<?xml version="1.0" encoding="UTF-8" standalone="no"?><!DOCTYPE svg PUBLIC "-//W3C//DTD SVG 1.1//EN" "http://www.w3.org/Graphics/SVG/1.1/DTD/svg11.dtd"><svg width="100%" height="100%" viewBox="0 0 169 169" version="1.1" xmlns="http://www.w3.org/2000/svg" xmlns:xlink="http://www.w3.org/1999/xlink" xml:space="preserve" xmlns:serif="http://www.serif.com/" style="fill-rule:evenodd;clip-rule:evenodd;stroke-linejoin:round;stroke-miterlimit:2;"><g><rect x="0" y="0" width="169" height="169" style="fill:#6d8764;"/></g><g><g><path d="M135.2,85.374l0,-41.958c0,-5.245 -4.37,-9.616 -9.616,-9.616l-41.958,0c-5.244,0 -9.616,4.37 -9.616,9.616l0,30.595l-30.595,0c-5.244,0 -9.615,4.37 -9.615,9.616l0,41.784c0,5.42 4.37,9.79 9.615,9.79l41.784,0c5.42,0 9.616,-4.37 9.616,-9.616l0,-30.595l30.595,0c5.42,0 9.79,-4.37 9.79,-9.616Zm-47.204,40.211c0,1.573 -1.224,2.623 -2.623,2.623l-41.958,0c-1.399,0 -2.623,-1.224 -2.623,-2.623l0,-41.958c0,-1.399 1.224,-2.623 2.623,-2.623l30.595,0l0,4.37c0,5.42 4.37,9.616 9.616,9.616l4.37,0l0,30.595Zm40.211,-40.211c0,1.573 -1.224,2.623 -2.623,2.623l-41.958,0c-1.573,0 -2.623,-1.224 -2.623,-2.623l0,-41.958c0,-1.399 1.224,-2.623 2.623,-2.623l41.784,0c1.573,0 2.797,1.224 2.797,2.623l0,41.958Z" style="fill:#d8dee9;fill-rule:nonzero;"/></g><g><path d="M131.704,105.479c0,-1.923 -1.573,-3.497 -3.497,-3.497c-1.923,0 -3.497,1.573 -3.497,3.497c0,6.819 -5.594,12.762 -12.588,13.112c1.399,-1.399 1.399,-3.497 0,-4.895c-1.399,-1.399 -3.497,-1.399 -4.895,0l-5.944,5.769c-0.699,0.699 -1.05,1.573 -1.05,2.448l0,0.349c0,1.224 0.699,2.448 1.749,2.972l5.419,5.42c0.699,0.699 1.574,1.05 2.448,1.05c0.874,0 1.748,-0.35 2.447,-1.05c1.399,-1.399 1.399,-3.497 0,-4.895c10.84,-0.525 19.406,-9.44 19.406,-20.28Z" style="fill:#d8dee9;fill-rule:nonzero;"/></g><g><path d="M37.297,63.346c0,1.923 1.574,3.497 3.498,3.497c1.922,0 3.495,-1.573 3.495,-3.497c0,-6.819 5.594,-12.762 12.588,-13.112c-1.399,1.399 -1.399,3.497 0,4.895c0.7,0.699 1.574,1.05 2.448,1.05c0.874,0 1.748,-0.35 2.448,-1.05l6.118,-5.944c0.699,-0.7 1.05,-1.574 1.05,-2.448l0,-0.349c0,-1.224 -0.699,-2.448 -1.749,-2.973l-5.419,-5.419c-1.399,-1.399 -3.498,-1.399 -4.896,0c-1.399,1.399 -1.399,3.495 0,4.894c-11.013,0.7 -19.581,9.616 -19.581,20.454l0,0.001Z" style="fill:#d8dee9;fill-rule:nonzero;"/></g><g><path d="M64.395,89.745c-8.217,0 -14.86,6.644 -14.86,14.86c0,8.217 6.644,14.86 14.86,14.86c8.216,0 14.86,-6.643 14.86,-14.86c0,-8.216 -6.644,-14.86 -14.86,-14.86Zm0,22.727c-4.37,0 -7.867,-3.497 -7.867,-7.867c0,-4.37 3.497,-7.867 7.867,-7.867c4.37,0 7.867,3.497 7.867,7.867c0,4.37 -3.497,7.867 -7.867,7.867Z" style="fill:#d8dee9;fill-rule:nonzero;"/></g><g><path d="M108.452,51.108c-0.699,-1.05 -1.748,-1.573 -2.972,-1.573c-1.224,0 -2.272,0.525 -2.972,1.573l-12.238,19.231c-0.699,1.048 -0.699,2.447 -0.176,3.497c0.699,1.048 1.749,1.748 3.147,1.748l24.476,0c1.224,0 2.447,-0.699 3.146,-1.748c0.699,-1.05 0.525,-2.448 -0.175,-3.497l-12.237,-19.231Zm-8.916,17.657l5.945,-9.266l5.944,9.266l-11.888,0Z" style="fill:#d8dee9;fill-rule:nonzero;"/></g></g></svg>